<svg height="512pt" viewBox="0 -39 512 512" width="512pt" xmlns="http://www.w3.org/2000/svg"><path d="m492.328125 433.679688c-4.574219 0-9.070313-1.605469-12.671875-4.648438l-109.15625-78.855469h-351.746094c-10.339844 0-18.753906-8.414062-18.753906-18.753906v-312.667969c0-10.339844 8.414062-18.753906 18.753906-18.753906h474.492188c10.339844 0 18.753906 8.414062 18.753906 18.753906v395.257813c0 7.957031-4.746094 15.078125-12.089844 18.140625-2.457031 1.027344-5.03125 1.527344-7.582031 1.527344zm-106.09375-109.148438 95.765625 69.183594v-363.714844h-452v290.175781h344.210938c4.445312 0 8.65625 1.535157 12.023437 4.355469zm0 0"/><path d="m420.742188 100.351562h-329.738282c-8.285156 0-15-6.714843-15-15 0-8.285156 6.714844-15 15-15h329.738282c8.285156 0 15 6.714844 15 15 0 8.285157-6.714844 15-15 15zm0 0"/><path d="m420.742188 160.351562h-329.738282c-8.285156 0-15-6.714843-15-15 0-8.285156 6.714844-15 15-15h329.738282c8.285156 0 15 6.714844 15 15 0 8.285157-6.714844 15-15 15zm0 0"/><path d="m420.726562 220.351562h-329.742187c-8.28125 0-15-6.714843-15-15 0-8.285156 6.71875-15 15-15h329.742187c8.28125 0 15 6.714844 15 15 0 8.285157-6.71875 15-15 15zm0 0"/><path d="m176.3125 280.351562h-84.308594c-8.28125 0-15-6.714843-15-15 0-8.285156 6.71875-15 15-15h84.308594c8.28125 0 15 6.714844 15 15 0 8.285157-6.71875 15-15 15zm0 0"/></svg>