<svg height="512pt" viewBox="0 -75 512 512" width="512pt" xmlns="http://www.w3.org/2000/svg"><path d="m501.332031 191.984375h-490.664062c-5.890625 0-10.667969-4.777344-10.667969-10.667969 0-5.886718 4.777344-10.664062 10.667969-10.664062h490.664062c5.890625 0 10.667969 4.777344 10.667969 10.664062 0 5.890625-4.777344 10.667969-10.667969 10.667969zm0 0"/><path d="m501.332031 191.984375c-2.730469 0-5.460937-1.046875-7.550781-3.113281l-170.667969-170.667969c-4.160156-4.160156-4.160156-10.921875 0-15.082031 4.160157-4.160156 10.925781-4.160156 15.085938 0l170.664062 170.664062c4.160157 4.160156 4.160157 10.925782 0 15.085938-2.070312 2.066406-4.800781 3.113281-7.53125 3.113281zm0 0"/><path d="m330.667969 362.652344c-2.730469 0-5.460938-1.046875-7.554688-3.117188-4.160156-4.160156-4.160156-10.921875 0-15.082031l170.667969-170.667969c4.160156-4.160156 10.921875-4.160156 15.082031 0 4.160157 4.160156 4.160157 10.925782 0 15.085938l-170.664062 170.664062c-2.070313 2.070313-4.800781 3.117188-7.53125 3.117188zm0 0"/></svg>