<?xml version="1.0" encoding="iso-8859-1"?>
<!-- Generator: Adobe Illustrator 16.0.0, SVG Export Plug-In . SVG Version: 6.00 Build 0)  -->
<!DOCTYPE svg PUBLIC "-//W3C//DTD SVG 1.1//EN" "http://www.w3.org/Graphics/SVG/1.1/DTD/svg11.dtd">
<svg version="1.1" id="Capa_1" xmlns="http://www.w3.org/2000/svg" xmlns:xlink="http://www.w3.org/1999/xlink" x="0px" y="0px"
	 width="23.516px" height="23.516px" viewBox="0 0 23.516 23.516" style="enable-background:new 0 0 23.516 23.516;"
	 xml:space="preserve">
<g>
	<path d="M23.516,0.334v11.811c0,7.359-2.689,11.039-8.072,11.039c-0.594,0-1.504-0.039-2.729-0.117v-4.572
		c3.721,0,5.578-1.721,5.578-5.161l-0.061-2.077h-3.855V0.334H23.516L23.516,0.334z M1.188,11.254h3.857l0.059,2.078
		c0,3.244-1.701,4.965-5.104,5.162v4.572c1.067,0.076,1.819,0.115,2.254,0.115c5.381,0,8.072-3.68,8.072-11.039V0.332h-9.14
		L1.188,11.254L1.188,11.254z"/>
</g>
<g>
</g>
<g>
</g>
<g>
</g>
<g>
</g>
<g>
</g>
<g>
</g>
<g>
</g>
<g>
</g>
<g>
</g>
<g>
</g>
<g>
</g>
<g>
</g>
<g>
</g>
<g>
</g>
<g>
</g>
</svg>
