<?xml version="1.0" encoding="iso-8859-1"?>
<!-- Generator: Adobe Illustrator 19.0.0, SVG Export Plug-In . SVG Version: 6.00 Build 0)  -->
<svg version="1.1" id="Capa_1" xmlns="http://www.w3.org/2000/svg" xmlns:xlink="http://www.w3.org/1999/xlink" x="0px" y="0px"
	 viewBox="0 0 512.007 512.007" style="enable-background:new 0 0 512.007 512.007;" xml:space="preserve">
<g>
	<g>
		<path d="M506.884,193.562L261.55,44.228c-3.3-2.011-7.429-2.081-10.795-0.181L5.422,182.714c-1.588,0.897-2.919,2.185-3.867,3.743
			c-3.062,5.033-1.465,11.595,3.568,14.657l245.333,149.333c1.671,1.018,3.59,1.557,5.547,1.557l0,0
			c1.839,0.001,3.647-0.473,5.248-1.376l245.333-138.667c1.588-0.897,2.919-2.185,3.867-3.743
			C513.514,203.186,511.916,196.624,506.884,193.562z M256.206,328.975L31.748,192.346L255.801,65.7L480.26,202.33L256.206,328.975z
			"/>
	</g>
</g>
<g>
	<g>
		<path d="M256.004,149.338c-35.883,0-64,18.741-64,42.667s28.117,42.667,64,42.667s64-18.741,64-42.667
			S291.886,149.338,256.004,149.338z M256.004,213.338c-24.427,0-42.667-11.264-42.667-21.333s18.24-21.333,42.667-21.333
			s42.667,11.264,42.667,21.333S280.43,213.338,256.004,213.338z"/>
	</g>
</g>
<g>
	<g>
		<rect x="74.67" y="181.338" width="128" height="21.333"/>
	</g>
</g>
<g>
	<g>
		<rect x="32.004" y="213.338" width="21.333" height="74.667"/>
	</g>
</g>
<g>
	<g>
		<path d="M42.67,277.338c-17.673,0-32,14.327-32,32c0,17.673,14.327,32,32,32c17.673,0,32-14.327,32-32
			C74.67,291.665,60.344,277.338,42.67,277.338z M42.67,320.004c-5.891,0-10.667-4.776-10.667-10.667
			c0-5.891,4.776-10.667,10.667-10.667c5.891,0,10.667,4.776,10.667,10.667C53.337,315.229,48.561,320.004,42.67,320.004z"/>
	</g>
</g>
<g>
	<g>
		<path d="M84.814,391.3l-21.333-64l-20.267,6.741l20.565,61.696c-0.843,3.125-4.587,9.6-21.109,9.6
			c-16.725,0-20.352-6.688-21.131-9.6l20.608-61.696L21.881,327.3l-21.333,64c-0.361,1.087-0.545,2.225-0.544,3.371
			c0,11.072,8.917,32,42.667,32s42.667-20.928,42.667-32C85.345,393.527,85.168,392.389,84.814,391.3z"/>
	</g>
</g>
<g>
	<g>
		<path d="M394.67,256.004v117.333c0,35.2-59.307,74.667-138.667,74.667s-138.667-39.467-138.667-74.667V256.004H96.004v117.333
			c0,52.032,73.269,96,160,96s160-43.968,160-96V256.004H394.67z"/>
	</g>
</g>
<g>
	<g>
		<path d="M352.004,277.338v94.933c-4.075,7.467-36.533,33.067-96,33.067v21.333c66.944,0,117.333-32.352,117.333-53.333v-96
			H352.004z"/>
	</g>
</g>
<g>
	<g>
		<rect x="341.337" y="181.338" width="21.333" height="21.333"/>
	</g>
</g>
<g>
	<g>
		<rect x="384.004" y="181.338" width="21.333" height="21.333"/>
	</g>
</g>
<g>
</g>
<g>
</g>
<g>
</g>
<g>
</g>
<g>
</g>
<g>
</g>
<g>
</g>
<g>
</g>
<g>
</g>
<g>
</g>
<g>
</g>
<g>
</g>
<g>
</g>
<g>
</g>
<g>
</g>
</svg>
