<svg height="512pt" viewBox="0 -75 512.00533 512" width="512pt" xmlns="http://www.w3.org/2000/svg"><path d="m501.339844 191.988281h-490.667969c-5.886719 0-10.66796875-4.78125-10.66796875-10.667969 0-5.886718 4.78124975-10.667968 10.66796875-10.667968h490.667969c5.886718 0 10.664062 4.78125 10.664062 10.667968 0 5.886719-4.777344 10.667969-10.664062 10.667969zm0 0"/><path d="m181.339844 362.652344c-2.730469 0-5.460938-1.042969-7.554688-3.113282l-170.664062-170.667968c-4.160156-4.160156-4.160156-10.921875 0-15.082032 4.160156-4.160156 10.921875-4.160156 15.082031 0l170.667969 170.667969c4.160156 4.160157 4.160156 10.921875 0 15.082031-2.070313 2.070313-4.800782 3.113282-7.53125 3.113282zm0 0"/><path d="m10.671875 191.988281c-2.730469 0-5.460937-1.046875-7.550781-3.117187-4.160156-4.160156-4.160156-10.921875 0-15.082032l170.664062-170.667968c4.160156-4.160156 10.925782-4.160156 15.085938 0s4.160156 10.925781 0 15.085937l-170.667969 170.664063c-2.070313 2.070312-4.800781 3.117187-7.53125 3.117187zm0 0"/></svg>