<svg height="512pt" viewBox="-21 0 512 512" width="512pt" xmlns="http://www.w3.org/2000/svg"><path d="m449.496094 91.101562c-13.21875-13.222656-30.777344-20.511718-49.457032-20.511718-18.679687 0-36.242187 7.289062-49.460937 20.511718-3.890625 3.910157-3.890625 10.226563 0 14.136719l21.199219 21.222657-14 14.019531c-32.621094-24.320313-72.058594-38.449219-112.808594-40.441407v-40.039062h30.269531c16.539063 0 30-13.449219 30-30 0-16.539062-13.460937-30-30-30h-80c-16.550781 0-30 13.460938-30 30 0 16.550781 13.449219 30 30 30h29.730469v40.039062c-40.75 1.992188-80.191406 16.121094-112.8125 40.441407l-14-14.019531 21.203125-21.222657c3.886719-3.910156 3.886719-10.226562 0-14.136719-13.222656-13.222656-30.78125-20.511718-49.460937-20.511718-18.679688 0-36.242188 7.289062-49.460938 20.511718-27.25 27.289063-27.25 71.699219 0 98.988282 1.878906 1.878906 4.421875 2.941406 7.078125 2.941406 2.652344 0 5.203125-1.0625 7.082031-2.929688l21.167969-21.203124 14.011719 14.03125c-28.21875 37.941406-42.5 84.511718-40.371094 132.171874 2.152344 47.839844 20.761719 93.136719 52.679688 128.609376l-46.328126 51.609374c-2.640624 2.941407-3.300781 7.148438-1.691406 10.75 1.609375 3.609376 5.179688 5.929688 9.132813 5.929688h49.5c2.71875 0 5.308593-1.101562 7.199219-3.058594l26.847656-27.839844c32.453125 20.136719 69.679687 30.738282 108.210937 30.738282h.011719c38.527344 0 75.757812-10.601563 108.207031-30.738282l26.839844 27.839844c1.890625 1.957032 4.480469 3.058594 7.203125 3.058594h49.5c3.949219 0 7.519531-2.320312 9.128906-5.929688 1.609375-3.601562.949219-7.808593-1.691406-10.75l-46.308594-51.589843c31.898438-35.441407 50.53125-80.761719 52.679688-128.628907 2.128906-47.652343-12.148438-94.230468-40.371094-132.171874l14.011719-14.03125 21.167969 21.203124c1.882812 1.867188 4.429687 2.929688 7.082031 2.929688 2.660156 0 5.199219-1.0625 7.078125-2.941406 27.25-27.289063 27.25-71.699219 0-98.988282zm-254.257813-51.101562c-5.519531 0-10-4.480469-10-10 0-5.511719 4.480469-10 10-10h80c5.507813 0 10 4.488281 10 10 0 5.519531-4.492187 10-10 10zm-146.539062 107.671875-20.472657 20.488281c-12.800781-19.410156-10.679687-45.851562 6.371094-62.921875 9.429688-9.449219 21.96875-14.648437 35.300782-14.648437 9.9375 0 19.449218 2.890625 27.550781 8.28125l-20.492188 20.519531zm47.96875 5.589844c-4.949219 4.449219-9.65625 9.199219-14.121094 14.136719l-12.640625-12.648438-.007812-.011719 14.128906-14.128906zm-8.21875 338.738281h-22.832031l30.570312-34.058594c4.453125 4.0625 9.054688 8.007813 13.878906 11.628906zm315.847656 0h-22.828125l-21.609375-22.421875c4.808594-3.644531 9.414063-7.570313 13.878906-11.628906zm16.25-177.789062c-2.058594 45.929687-20.917969 89.25-53.121094 122.039062-.097656.101562-.199219.191406-.289062.289062-.019531.019532-.050781.050782-.070313.070313-.230468.242187-.46875.480469-.738281.75-8.378906 8.390625-17.5625 15.992187-27.289063 22.601563-30.742187 20.859374-66.730468 31.878906-104.082031 31.878906-37.347656 0-73.339843-11.03125-104.070312-31.890625-9.730469-6.609375-18.898438-14.210938-27.269531-22.578125l-.828126-.839844c-.023437-.019531-.03125-.03125-.050781-.050781-32.339843-32.820313-51.289062-76.242188-53.351562-122.28125-2.050781-45.769531 12.671875-90.4375 41.449219-125.777344 3.992187-4.890625 8.292968-9.660156 12.773437-14.152344 4.488281-4.488281 9.21875-8.769531 14.058594-12.730469 32.941406-26.917968 74.597656-41.75 117.300781-41.75 42.699219 0 84.359375 14.832032 117.296875 41.75 4.84375 3.960938 9.570313 8.242188 14.050781 12.722657 4.492188 4.5 8.792969 9.269531 12.78125 14.160156 28.78125 35.339844 43.5 80.019531 41.449219 125.789063-2.058594 45.929687 2.050781-45.769532 0 0zm-47.28125-160.949219 12.640625-12.652344 14.132812 14.128906-.011718.011719-12.640625 12.648438c-4.46875-4.929688-9.175781-9.679688-14.121094-14.136719zm68.441406 14.898437-20.46875-20.488281-28.261719-28.28125-20.488281-20.519531c8.097657-5.390625 17.609375-8.28125 27.550781-8.28125 13.328126 0 25.867188 5.199218 35.296876 14.648437 17.050781 17.070313 19.171874 43.511719 6.371093 62.921875zm0 0"/><path d="m274.945312 315.816406c-5.523437 0-10-4.476562-10-10 0-5.523437 4.476563-10 10-10h39.953126c5.523437 0 10 4.476563 10 10 0 5.523438-4.476563 10-10 10zm0 0"/><path d="m234.96875 274.804688c-5.523438 0-10-4.480469-10-10v-60c0-5.523438 4.476562-10 10-10s10 4.476562 10 10v60c0 5.519531-4.476562 10-10 10zm0 0"/><path d="m234.988281 315c-5.523437 0-10.003906-4.476562-10.003906-10s4.46875-10 9.992187-10h.011719c5.523438 0 10 4.476562 10 10s-4.476562 10-10 10zm0 0"/><path d="m234.96875 461.835938c-41.628906 0-80.765625-16.230469-110.195312-45.699219-29.363282-29.40625-45.570313-68.496094-45.636719-110.070313-.066407-41.515625 15.972656-80.605468 45.15625-110.082031.144531-.152344.292969-.304687.441406-.453125.46875-.480469.949219-.949219 1.429687-1.417969 29.292969-28.59375 67.917969-44.320312 108.804688-44.320312 40.882812 0 79.511719 15.726562 108.765625 44.28125.515625.507812.996094.976562 1.464844 1.457031.152343.148438.300781.300781.441406.453125 29.1875 29.476563 45.222656 68.566406 45.160156 110.082031-.066406 41.574219-16.273437 80.664063-45.636719 110.070313-29.433593 29.46875-68.570312 45.699219-110.195312 45.699219zm0-292.042969c-35.636719 0-69.300781 13.703125-94.796875 38.59375-.410156.398437-.796875.773437-1.171875 1.164062-.027344.023438-.054688.054688-.082031.082031l-.101563.101563c-.09375.101563-.125.128906-.21875.226563-25.503906 25.710937-39.519531 59.832031-39.460937 96.074218.058593 36.25 14.1875 70.332032 39.785156 95.96875 25.65625 25.683594 59.765625 39.832032 96.046875 39.832032s70.390625-14.148438 96.042969-39.832032c25.601562-25.636718 39.730469-59.71875 39.785156-95.96875.058594-36.242187-13.957031-70.363281-39.460937-96.074218-.09375-.09375-.1875-.191407-.277344-.292969l-.042969-.035157c-.027344-.027343-.054687-.058593-.082031-.082031-.375-.386719-.761719-.765625-1.148438-1.144531-25.519531-24.90625-59.183594-38.613281-94.816406-38.613281zm0 0"/></svg>