<svg height="511pt" viewBox="0 -32 511.99968 511" width="511pt" xmlns="http://www.w3.org/2000/svg"><path d="m58.449219 75.082031c-.648438 0-1.308594-.066406-1.949219-.199219-.640625-.128906-1.269531-.320312-1.871094-.570312-.609375-.25-1.1875-.558594-1.726562-.917969-.550782-.359375-1.0625-.78125-1.523438-1.242187-.457031-.460938-.878906-.96875-1.25-1.519532-.359375-.539062-.660156-1.117187-.910156-1.730468-.25-.597656-.449219-1.226563-.566406-1.867188-.132813-.640625-.199219-1.300781-.199219-1.953125 0-.648437.066406-1.308593.199219-1.949219.117187-.640624.316406-1.269531.566406-1.878906.25-.601562.550781-1.179687.910156-1.71875.371094-.550781.792969-1.0625 1.25-1.519531.460938-.460937.972656-.882813 1.523438-1.242187.539062-.371094 1.117187-.667969 1.726562-.917969.601563-.25 1.230469-.453125 1.871094-.570313 1.289062-.261718 2.609375-.269531 3.898438 0 .640624.117188 1.273437.320313 1.871093.570313.609375.25 1.191407.546875 1.730469.917969.550781.359374 1.058594.78125 1.519531 1.242187.460938.457031.878907.96875 1.238281 1.519531.363282.539063.671876 1.117188.921876 1.71875.25.609375.449218 1.238282.570312 1.878906.128906.640626.199219 1.300782.199219 1.949219 0 .652344-.070313 1.3125-.199219 1.953125-.121094.640625-.320312 1.269532-.570312 1.867188-.25.613281-.558594 1.191406-.921876 1.730468-.359374.550782-.777343 1.058594-1.238281 1.519532-.460937.460937-.96875.882812-1.519531 1.242187-.539062.359375-1.121094.667969-1.730469.917969-.601562.25-1.230469.441406-1.871093.570312-.640626.132813-1.296876.199219-1.949219.199219zm0 0"/><path d="m317.480469 129.003906c-.648438 0-1.3125-.058594-1.949219-.191406-.640625-.128906-1.273438-.320312-1.871094-.570312-.609375-.25-1.191406-.558594-1.730468-.917969-.550782-.371094-1.058594-.789063-1.519532-1.25-.460937-.460938-.878906-.96875-1.238281-1.519531-.359375-.539063-.671875-1.121094-.921875-1.722657-.25-.609375-.4375-1.226562-.570312-1.867187-.128907-.652344-.199219-1.300782-.199219-1.960938 0-2.628906 1.070312-5.210937 2.929687-7.070312.460938-.460938.972656-.878906 1.523438-1.238282.539062-.363281 1.117187-.671874 1.726562-.921874.601563-.25 1.230469-.441407 1.871094-.570313 1.289062-.257813 2.621094-.257813 3.910156 0 .628906.128906 1.261719.320313 1.871094.570313.597656.25 1.179688.558593 1.71875.921874.550781.359376 1.058594.777344 1.519531 1.238282 1.859375 1.859375 2.929688 4.441406 2.929688 7.070312 0 .660156-.058594 1.308594-.1875 1.960938-.128907.640625-.320313 1.257812-.570313 1.867187-.25.601563-.558594 1.183594-.921875 1.722657-.367187.550781-.789062 1.058593-1.25 1.519531-.457031.460937-.96875.878906-1.519531 1.25-.539062.359375-1.117188.667969-1.71875.917969-.609375.25-1.242188.441406-1.871094.570312-.652344.132812-1.3125.191406-1.960937.191406zm0 0"/><path d="m500.90625 30.628906h-392.207031c-9.980469-17.953125-29.148438-30.128906-51.105469-30.128906-15.605469 0-30.773438 6.417969-41.609375 17.605469-10.742187 11.097656-16.40625 25.640625-15.9609375 40.972656v325.496094c-.03125 1.113281-.03125 2.230469 0 3.355469-.3046875 15.304687 5.5390625 29.882812 16.4648435 41.054687 11.265625 11.519531 26.949219 18.125 43.035157 18.125h442.476562c5.523438 0 10-4.476563 10-10v-395.386719c0-6.117187-4.976562-11.09375-11.09375-11.09375zm-470.554688 1.390625c7.195313-7.429687 16.867188-11.519531 27.242188-11.519531 21.1875 0 38.425781 17.234375 38.425781 38.425781v284.890625c-7.6875-6.726562-17.144531-11.472656-27.570312-13.4375v-225.570312c0-5.523438-4.476563-10-10-10-5.519531 0-10 4.476562-10 10v225.292968c-10.453125 1.6875-20.34375 6.226563-28.425781 13.089844v-284.265625c0-.109375 0-.214843-.003907-.320312-.320312-9.933594 3.347657-19.375 10.332031-26.585938zm461.648438 395.089844h-432.476562c-10.738282 0-21.210938-4.414063-28.734376-12.109375-7.164062-7.324219-10.988281-16.820312-10.765624-26.75 0-.109375 0-.21875 0-.332031 0-.039063 0-.082031 0-.125v-2.855469c.328124-8.996094 3.941406-17.457031 10.328124-24.050781 7.195313-7.429688 16.867188-11.519531 27.242188-11.519531 21.1875 0 38.425781 17.238281 38.425781 38.425781 0 5.523437 4.476563 10 10 10 5.523438 0 10-4.476563 10-10v-328.867188c0-2.816406-.199219-5.585937-.585937-8.296875h376.566406zm0 0"/><path d="m169.945312 257.476562h147.535157c5.523437 0 10-4.476562 10-10 0-.480468-.035157-.953124-.101563-1.417968.066406-.464844.101563-.9375.101563-1.421875v-82.632813c0-5.523437-4.476563-10-10-10-5.519531 0-10 4.476563-10 10v75.472656h-38.664063v-29.382812c0-5.523438-4.476562-10-10-10-23.390625 0-42.871094 17.054688-46.660156 39.382812h-32.210938v-143.960937h68.871094v49.972656h-41.164062c-5.523438 0-10 4.480469-10 10 0 5.523438 4.476562 10 10 10h51.164062c5.523438 0 10-4.476562 10-10v-59.972656h111.214844c4.054688 18.765625 19.265625 33.429687 38.320312 36.664063v30.316406h-52.207031c-5.523437 0-10 4.480468-10 10 0 5.523437 4.476563 10 10 10h52.207031v56.984375h-47.207031c-5.523437 0-10 4.476562-10 10 0 5.519531 4.476563 10 10 10h57.207031c5.523438 0 10-4.480469 10-10v-163.964844c0-5.523437-4.476562-10-10-10h-258.40625c-5.523437 0-10 4.476563-10 10v163.960937c0 5.523438 4.476563 10 10 10zm78.871094-37.488281v17.488281h-16.152344c2.4375-7.992187 8.441407-14.445312 16.152344-17.488281zm169.535156-126.472656v16.152344c-7.992187-2.433594-14.445312-8.441407-17.488281-16.152344zm0 0"/><path d="m428.351562 345.917969h-258.40625c-5.523437 0-10-4.476563-10-10v-39.117188c0-5.523437 4.476563-10 10-10h258.40625c5.523438 0 10 4.476563 10 10v39.117188c0 5.523437-4.476562 10-10 10zm-248.40625-20h238.40625v-19.117188h-238.40625zm0 0"/><path d="m428.351562 392.792969c-.652343 0-1.3125-.058594-1.953124-.1875-.640626-.132813-1.269532-.320313-1.867188-.570313-.609375-.25-1.191406-.5625-1.730469-.921875-.550781-.371093-1.058593-.789062-1.519531-1.25-1.859375-1.859375-2.929688-4.4375-2.929688-7.070312 0-.648438.066407-1.308594.199219-1.949219.128907-.640625.320313-1.269531.570313-1.871094.25-.609375.558594-1.1875.917968-1.730468.359376-.546876.78125-1.058594 1.242188-1.519532.457031-.457031.96875-.878906 1.519531-1.238281.539063-.359375 1.117188-.671875 1.730469-.921875.597656-.25 1.226562-.4375 1.867188-.570312 3.25-.660157 6.699218.410156 9.019531 2.730468 1.863281 1.859375 2.933593 4.441406 2.933593 7.070313 0 2.632812-1.070312 5.210937-2.933593 7.070312-1.859375 1.859375-4.4375 2.929688-7.066407 2.929688zm0 0"/><path d="m385.351562 392.792969h-215.40625c-5.523437 0-10-4.476563-10-10 0-5.519531 4.476563-10 10-10h215.40625c5.523438 0 10 4.480469 10 10 0 5.523437-4.476562 10-10 10zm0 0"/></svg>