<svg height="511pt" viewBox="0 0 511 511.99985" width="511pt" xmlns="http://www.w3.org/2000/svg"><path d="m502.457031 45.136719h-159.851562c-5.519531 0-10 4.476562-10 10 0 5.523437 4.480469 10 10 10h149.851562v426.863281h-423.996093c-12.511719 0-24.4375-5.625-33.585938-15.84375-10.507812-11.734375-15.773438-27.84375-14.085938-43.085938 2.472657-22.332031 22.660157-38.492187 44.984376-36.015624 8.125.898437 15.414062 4.90625 20.519531 11.289062 3.5625 4.449219 5.761719 9.679688 6.46875 15.191406v7.742188c-1.582031 12.089844-12.589844 20.773437-24.757813 19.425781-5.484375-.601563-10.433594 3.347656-11.039062 8.839844-.609375 5.488281 3.347656 10.429687 8.839844 11.039062 23.292968 2.570313 44.316406-14.265625 46.894531-37.546875 0-.015625 0-.03125.003906-.042968.003906-.035157.003906-.066407.007813-.101563.378906-3.523437.382812-7.003906.046874-10.402344v-357.351562h149.847657c5.523437 0 10-4.476563 10-10 0-5.523438-4.476563-10-10-10h-149.898438c-1.019531-9.472657-4.703125-18.476563-10.800781-26.09375-8.449219-10.546875-20.496094-17.179688-33.929688-18.664063-16.128906-1.789062-31.984374 2.8125-44.652343 12.957032-12.667969 10.140624-20.628907 24.605468-22.414063 40.734374-.039062.363282-.0625.734376-.0625 1.101563v376.429687c-2.054687 20.589844 5.054688 42.175782 19.128906 57.898438 12.992188 14.507812 30.210938 22.5 48.480469 22.5h433.996094c5.523437 0 10-4.476562 10-10v-446.863281c.003906-5.523438-4.476563-10-9.996094-10zm-436.683593-24.882813c8.125.902344 15.414062 4.910156 20.519531 11.289063 5.109375 6.382812 7.425781 14.371093 6.527343 22.492187 0 .011719 0 .019532-.003906.03125-.035156.351563-.058594.707032-.058594 1.070313v331.871093c-7.003906-5.273437-15.453124-8.800781-24.78125-9.832031-16.128906-1.789062-31.984374 2.8125-44.652343 12.953125-.847657.679688-1.667969 1.382813-2.476563 2.097656v-336.472656c2.726563-22.0625 22.773438-37.957031 44.925782-35.5zm0 0"/><path d="m147.007812 420c-5.519531 0-10 4.476562-10 10s4.480469 10 10 10h232c5.519532 0 10-4.476562 10-10s-4.480468-10-10-10h-10v-139.945312h10c4.269532 0 8.070313-2.714844 9.457032-6.753907 1.386718-4.042969.054687-8.515625-3.320313-11.140625l-115.878906-90.109375c-3.609375-2.808593-8.664063-2.808593-12.273437 0l-115.878907 90.109375c-3.375 2.625-4.707031 7.097656-3.320312 11.140625 1.386719 4.039063 5.1875 6.753907 9.457031 6.753907h9.757812v139.945312zm94 0v-83.945312h44v83.945312zm22.121094-227.386719 86.726563 67.441407h-173.457031zm-86.121094 87.441407h172v139.945312h-44v-93.945312c0-5.523438-4.480468-10-10-10h-64c-5.523437 0-10 4.476562-10 10v93.945312h-44zm0 0"/><path d="m389.011719 124.933594-8.484375-8.488282c-3.90625-3.902343-10.234375-3.902343-14.144532 0-1.5625 1.566407-2.492187 3.523438-2.800781 5.558594h-200.90625c-.308593-2.03125-1.238281-3.992187-2.800781-5.558594-3.90625-3.902343-10.238281-3.902343-14.144531 0l-8.484375 8.488282c-3.90625 3.902344-3.90625 10.234375 0 14.140625l8.484375 8.484375c1.953125 1.953125 4.511719 2.929687 7.070312 2.929687 2.558594 0 5.117188-.976562 7.070313-2.929687 1.566406-1.566406 2.496094-3.523438 2.804687-5.554688h200.90625c.308594 2.03125 1.238281 3.988282 2.800781 5.554688 1.953126 1.953125 4.515626 2.929687 7.074219 2.929687 2.558594 0 5.117188-.976562 7.070313-2.929687l8.484375-8.484375c3.90625-3.90625 3.90625-10.238281 0-14.140625zm0 0"/><path d="m432.898438 414.445312c-3.902344 3.902344-3.902344 10.234376 0 14.140626l8.484374 8.484374c1.953126 1.953126 4.511719 2.929688 7.074219 2.929688 2.558594 0 5.117188-.976562 7.070313-2.929688l8.484375-8.484374c3.902343-3.90625 3.902343-10.238282 0-14.140626-1.566407-1.566406-3.523438-2.492187-5.558594-2.804687v-216.6875c2.035156-.3125 3.992187-1.238281 5.558594-2.804687 3.902343-3.90625 3.902343-10.238282 0-14.144532l-8.484375-8.484375c-3.90625-3.902343-10.238282-3.902343-14.144532 0l-8.484374 8.484375c-3.90625 3.90625-3.90625 10.238282 0 14.144532 1.566406 1.566406 3.523437 2.492187 5.558593 2.800781v216.691406c-2.035156.3125-3.992187 1.238281-5.558593 2.804687zm0 0"/><path d="m302.605469 65.132812c2.632812 0 5.210937-1.058593 7.070312-2.929687 1.859375-1.851563 2.929688-4.429687 2.929688-7.070313 0-2.628906-1.066407-5.210937-2.929688-7.070312-1.859375-1.859375-4.4375-2.929688-7.070312-2.929688-2.628907 0-5.210938 1.070313-7.066407 2.929688-1.863281 1.859375-2.933593 4.441406-2.933593 7.070312 0 2.640626 1.070312 5.210938 2.933593 7.070313 1.855469 1.871094 4.4375 2.929687 7.066407 2.929687zm0 0"/></svg>