<svg height="484pt" viewBox="0 -19 484.87784 484" width="484pt" xmlns="http://www.w3.org/2000/svg"><path d="m476.976562 71.648438-364.578124-2.035157v-60.945312c-.035157-4.484375-3.628907-8.128907-8.113282-8.230469h-37.949218c-35.714844.050781-65.007813 28.3125-66.335938 64h.398438v311h-.335938c-.0820312 1 .335938 2.753906.335938 4.101562v.113282c-1 36.664062 29.28125 66.785156 65.945312 66.785156h407.941406c4.417969-.054688 7.976563-3.636719 8-8.054688l2.59375-358.621093c.027344-2.125-.785156-4.171875-2.269531-5.695313-1.480469-1.523437-3.507813-2.390625-5.632813-2.417968zm-460.578124-4.445313c-1-27.835937 22.117187-50.765625 49.945312-50.765625h30.054688v297h-30c-19.253907-.152344-37.578126 8.269531-50 22.980469zm449.945312 363.234375h-399.992188c-27.835937 0-50.953124-22.925781-49.953124-50.773438v-.113281c-.070313-13.292969 5.171874-26.066406 14.566406-35.476562 9.390625-9.410157 22.152344-14.679688 35.449218-14.636719h37.871094c4.5-.136719 8.085938-3.8125 8.113282-8.316406v-235.503906l356.476562 2.097656zm0 0"/><path d="m194.71875 125.46875 192.070312 1.96875h.089844c4.363282.050781 7.945313-3.445312 8-7.808594.050782-4.417968-3.492187-8.042968-7.914062-8.097656l-192.074219-2.09375h-.089844c-4.425781-.023438-8.035156 3.546875-8.058593 7.972656-.023438 4.429688 3.546874 8.035156 7.972656 8.058594zm0 0"/><path d="m424.171875 356.4375h.117187c4.394532-.050781 7.945313-3.601562 8-8l2.589844-178.617188c.078125-4.417968-3.445312-8.0625-7.863281-8.136718-4.417969-.078125-8.058594 3.441406-8.136719 7.859375l-2.589844 178.671875c-.097656 4.449218 3.433594 8.128906 7.882813 8.222656zm0 0"/><path d="m150.746094 266.4375h19.652344v125.765625c-.003907 2.074219.828124 4.066406 2.308593 5.527344 1.476563 1.457031 3.480469 2.261719 5.558594 2.226562l186.019531 1.480469h.074219c2.082031.089844 4.117187-.65625 5.652344-2.070312 1.511719-1.40625 2.378906-3.375 2.386719-5.441407v-127.488281h21.65625c3.339843 0 6.324218-2.070312 7.492187-5.199219 1.167969-3.125.273437-6.652343-2.246094-8.839843l-121.5-105.488282c-3.007812-2.609375-7.472656-2.613281-10.484375-.007812l-121.808594 105.492187c-2.523437 2.183594-3.425781 5.710938-2.257812 8.839844s4.15625 5.203125 7.496094 5.203125zm144.652344 118.851562-45-.421874v-51.429688h45zm61 .5625-45-.414062v-60.296875c.03125-2.074219-.789063-4.066406-2.265626-5.519531-1.476562-1.453125-3.480468-2.242188-5.550781-2.183594h-61.371093c-2.070313-.058594-4.074219.730469-5.550782 2.183594-1.476562 1.453125-2.292968 3.445312-2.261718 5.519531v59.578125l-48-.445312v-117.835938h170zm-83.847657-222.3125 100.089844 86.898438h-200.441406zm0 0"/></svg>