<?xml version="1.0" encoding="iso-8859-1"?>
<!-- Generator: Adobe Illustrator 19.0.0, SVG Export Plug-In . SVG Version: 6.00 Build 0)  -->
<svg version="1.1" id="Capa_1" xmlns="http://www.w3.org/2000/svg" xmlns:xlink="http://www.w3.org/1999/xlink" x="0px" y="0px"
	 viewBox="0 0 512 512" style="enable-background:new 0 0 512 512;" xml:space="preserve">
<g>
	<g>
		<path d="M480,0H32C14.352,0,0,14.352,0,32v448c0,17.648,14.352,32,32,32h448c17.648,0,32-14.352,32-32V32
			C512,14.352,497.648,0,480,0z M480,112h-96V64h-32v64c0,8.832,7.168,16,16,16h112v224H224c-8.832,0-16,7.168-16,16v64h32v-48h240
			v80l-448,0.016V432h96v-32H32V32h112v48h32V32h64v112H112c-8.832,0-16,7.168-16,16v176h32v-64h64v-32h-64v-64h112v64
			c0,8.832,7.168,16,16,16h176v-32H272V32h208V112z"/>
	</g>
</g>
<g>
</g>
<g>
</g>
<g>
</g>
<g>
</g>
<g>
</g>
<g>
</g>
<g>
</g>
<g>
</g>
<g>
</g>
<g>
</g>
<g>
</g>
<g>
</g>
<g>
</g>
<g>
</g>
<g>
</g>
</svg>
