<svg height="512pt" viewBox="0 0 512 512" width="512pt" xmlns="http://www.w3.org/2000/svg"><path d="m512 380.042969v-79.328125c0-22.695313-18.464844-41.160156-41.160156-41.160156h-386.289063v-197.035157c0-17.929687 14.585938-32.519531 32.511719-32.519531 16.308594 0 29.851562 12.078125 32.160156 27.761719h-14.652344c-8.28125 0-15 6.714843-15 15 0 8.285156 6.71875 15 15 15h60c8.285157 0 15-6.714844 15-15 0-8.285157-6.714843-15-15-15h-15.179687c-2.4375-32.257813-29.460937-57.761719-62.328125-57.761719-34.46875 0-62.511719 28.046875-62.511719 62.519531v197.035157h-13.390625c-22.695312 0-41.160156 18.464843-41.160156 41.160156v79.328125c0 33.199219 23.386719 61.046875 54.550781 67.921875v6.632812c0 15.109375-12.285156 27.402344-27.390625 27.402344-8.285156 0-15 6.714844-15 15s6.714844 15 15 15c31.644532 0 57.390625-25.75 57.390625-57.402344v-5.003906h342.898438v5.003906c0 31.652344 25.746093 57.402344 57.390625 57.402344 8.285156 0 15-6.714844 15-15s-6.714844-15-15-15c-15.105469 0-27.390625-12.292969-27.390625-27.402344v-6.632812c31.164062-6.875 54.550781-34.722656 54.550781-67.921875zm-482 0v-79.328125c0-6.152344 5.007812-11.160156 11.160156-11.160156h429.683594c6.152344 0 11.15625 5.007812 11.15625 11.160156v79.328125c0 21.808593-17.742188 39.550781-39.550781 39.550781h-372.898438c-21.808593 0-39.550781-17.742188-39.550781-39.550781zm0 0"/><path d="m179.570312 125.398438c0-8.285157-6.714843-15-15-15-8.28125 0-15 6.714843-15 15v26.183593c0 8.285157 6.71875 15 15 15 8.285157 0 15-6.714843 15-15zm0 0"/><path d="m164.570312 185.65625c-8.28125 0-15 6.71875-15 15v26.1875c0 8.285156 6.71875 15 15 15 8.285157 0 15-6.714844 15-15v-26.1875c0-8.28125-6.714843-15-15-15zm0 0"/></svg>