<?xml version="1.0" encoding="iso-8859-1"?>
<!-- Generator: Adobe Illustrator 19.0.0, SVG Export Plug-In . SVG Version: 6.00 Build 0)  -->
<svg version="1.1" id="Capa_1" xmlns="http://www.w3.org/2000/svg" xmlns:xlink="http://www.w3.org/1999/xlink" x="0px" y="0px"
	 viewBox="0 0 480 480" style="enable-background:new 0 0 480 480;" xml:space="preserve">
<g>
	<g>
		<g>
			<path d="M456,212h-8V100c0-13.255-10.745-24-24-24s-24,10.745-24,24v8h-40c-13.255,0-24,10.745-24,24v48h48v-24h16v56h-72v-24
				H216v24H48V36c0-4.418,3.582-8,8-8h40c4.418,0,8,3.582,8,8v16H88c-13.255,0-24,10.745-24,24s10.745,24,24,24h48
				c13.255,0,24-10.745,24-24s-10.745-24-24-24h-16V36c0-13.255-10.745-24-24-24H56c-13.255,0-24,10.745-24,24v176h-8
				c-13.255,0-24,10.745-24,24v16c0,13.255,10.745,24,24,24h8v88c0.049,30.478,19.27,57.627,48,67.8V452c0,8.837,7.163,16,16,16h16
				c8.837,0,16-7.163,16-16v-16h232v16c0,8.837,7.163,16,16,16h16c8.837,0,16-7.163,16-16v-23.6c24.47-12.141,39.963-37.083,40-64.4
				v-88h8c13.255,0,24-10.745,24-24v-16C480,222.745,469.255,212,456,212z M136,68c4.418,0,8,3.582,8,8s-3.582,8-8,8H88
				c-4.418,0-8-3.582-8-8s3.582-8,8-8H136z M416,100c0-4.418,3.582-8,8-8s8,3.582,8,8v8h-16V100z M368,164h-16v-8h16V164z M384,140
				h-32v-8c0-4.418,3.582-8,8-8h72v16H384z M432,156v56h-16v-56H432z M232,204h80v120h-80V204z M24,260c-4.418,0-8-3.582-8-8v-16
				c0-4.418,3.582-8,8-8h192v32H24z M112,452H96v-16h16V452z M392,452h-16v-16h16V452z M432,364c-0.04,30.911-25.089,55.96-56,56
				H104c-30.911-0.04-55.96-25.089-56-56v-88h168v80h16v-16h16v16h16v-16h16v16h16v-16h16v16h16v-80h104V364z M464,252
				c0,4.418-3.582,8-8,8H328v-32h128c4.418,0,8,3.582,8,8V252z"/>
			<rect x="72" y="116" width="16" height="16"/>
			<rect x="104" y="116" width="16" height="16"/>
			<rect x="136" y="116" width="16" height="16"/>
			<rect x="72" y="180" width="16" height="16"/>
			<rect x="104" y="180" width="16" height="16"/>
			<rect x="136" y="180" width="16" height="16"/>
			<rect x="88" y="148" width="16" height="16"/>
			<rect x="120" y="148" width="16" height="16"/>
		</g>
	</g>
</g>
<g>
</g>
<g>
</g>
<g>
</g>
<g>
</g>
<g>
</g>
<g>
</g>
<g>
</g>
<g>
</g>
<g>
</g>
<g>
</g>
<g>
</g>
<g>
</g>
<g>
</g>
<g>
</g>
<g>
</g>
</svg>
