<?xml version="1.0" encoding="iso-8859-1"?>
<!-- Generator: Adobe Illustrator 19.0.0, SVG Export Plug-In . SVG Version: 6.00 Build 0)  -->
<svg version="1.1" id="Layer_1" xmlns="http://www.w3.org/2000/svg" xmlns:xlink="http://www.w3.org/1999/xlink" x="0px" y="0px"
	 viewBox="0 0 288.928 288.928" style="enable-background:new 0 0 288.928 288.928;" xml:space="preserve">
<g>
	<g>
		<path d="M258.948,144.928h-12.983V36.833C245.964,16.523,229.441,0,209.131,0c-20.311,0-36.834,16.523-36.834,36.833v7.446
			c-16.52,3.468-28.964,18.149-28.964,35.685c0,4.143,3.357,7.5,7.5,7.5h57.928c4.143,0,7.5-3.357,7.5-7.5
			c0-17.536-12.444-32.217-28.964-35.685v-7.446c0-12.039,9.795-21.833,21.834-21.833s21.833,9.794,21.833,21.833v108.095H29.982
			c-11.369,0-20.619,9.249-20.619,20.618c0,10.022,7.191,18.388,16.681,20.232l7.157,60.042c1.6,13.42,12.713,23.633,26.097,24.217
			v11.391c0,4.143,3.358,7.5,7.5,7.5h28.667c4.142,0,7.5-3.357,7.5-7.5v-11.362h83v11.362c0,4.143,3.357,7.5,7.5,7.5h28.667
			c4.143,0,7.5-3.357,7.5-7.5v-11.391c13.384-0.584,24.497-10.797,26.097-24.217l7.157-60.042c9.49-1.844,16.68-10.21,16.68-20.232
			C279.565,154.177,270.317,144.928,258.948,144.928z M199.91,72.464h-40.225c3.048-8.148,10.914-13.964,20.112-13.964
			C188.995,58.5,196.862,64.315,199.91,72.464z M87.964,273.928H74.298v-3.862h13.667V273.928z M214.631,273.928h-13.667v-3.862
			h13.667V273.928z M240.834,244.045c-0.749,6.282-6.085,11.02-12.412,11.02c-31.271,0-136.44,0-167.914,0
			c-6.327,0-11.663-4.738-12.412-11.02l-6.899-57.88h206.536L240.834,244.045z M258.948,171.165c-10.927,0-219.467,0-228.966,0
			c-3.098,0-5.619-2.52-5.619-5.619c0-3.098,2.521-5.618,5.619-5.618h228.966c3.098,0,5.618,2.52,5.618,5.618
			C264.565,168.645,262.046,171.165,258.948,171.165z"/>
	</g>
</g>
<g>
</g>
<g>
</g>
<g>
</g>
<g>
</g>
<g>
</g>
<g>
</g>
<g>
</g>
<g>
</g>
<g>
</g>
<g>
</g>
<g>
</g>
<g>
</g>
<g>
</g>
<g>
</g>
<g>
</g>
</svg>
