<?xml version="1.0" encoding="iso-8859-1"?>
<!-- Generator: Adobe Illustrator 19.0.0, SVG Export Plug-In . SVG Version: 6.00 Build 0)  -->
<svg version="1.1" id="Capa_1" xmlns="http://www.w3.org/2000/svg" xmlns:xlink="http://www.w3.org/1999/xlink" x="0px" y="0px"
	 viewBox="0 0 512.059 512.059" style="enable-background:new 0 0 512.059 512.059;" xml:space="preserve">
<g transform="translate(0 -1)">
	<g>
		<g>
			<path d="M366.963,43.726h-76.8c-4.713,0-8.533,3.82-8.533,8.533v59.733H145.096c-23.552,0.028-42.638,19.114-42.667,42.667
				v273.067c0.028,23.552,19.114,42.638,42.667,42.667H256.03c4.713,0,8.533-3.82,8.533-8.533v-59.733h102.4
				c23.552-0.028,42.638-19.114,42.667-42.667V86.392C409.601,62.84,390.515,43.754,366.963,43.726z M247.496,453.326h-102.4
				c-14.138,0-25.6-11.461-25.6-25.6s11.461-25.6,25.6-25.6h102.4V453.326z M366.963,385.059H145.096
				c-9.263,0.031-18.258,3.108-25.6,8.755V154.659c0-14.139,11.461-25.6,25.6-25.6H281.63v196.267c0,4.713,3.82,8.533,8.533,8.533
				h76.8c14.138,0,25.6,11.462,25.6,25.6S381.101,385.059,366.963,385.059z M392.563,325.548c-7.342-5.647-16.337-8.724-25.6-8.755
				h-68.267v-256h68.267c14.138,0,25.6,11.461,25.6,25.6V325.548z"/>
			<path d="M68.296,1.059h-51.2C7.671,1.059,0.03,8.7,0.03,18.126v477.867c0,9.426,7.641,17.067,17.067,17.067h51.2
				c9.426,0,17.067-7.641,17.067-17.067V18.126C85.363,8.7,77.722,1.059,68.296,1.059z M68.296,495.992h-51.2v-17.067h8.533
				c4.713,0,8.533-3.82,8.533-8.533s-3.821-8.533-8.533-8.533h-8.533v-25.6h8.533c4.713,0,8.533-3.82,8.533-8.533
				s-3.821-8.533-8.533-8.533h-8.533v-25.6h17.067c4.713,0,8.533-3.82,8.533-8.533s-3.82-8.533-8.533-8.533H17.096v-25.6h8.533
				c4.713,0,8.533-3.82,8.533-8.533s-3.821-8.533-8.533-8.533h-8.533v-25.6h8.533c4.713,0,8.533-3.82,8.533-8.533
				s-3.821-8.533-8.533-8.533h-8.533v-25.6h17.067c4.713,0,8.533-3.82,8.533-8.533s-3.82-8.533-8.533-8.533H17.096v-25.6h8.533
				c4.713,0,8.533-3.821,8.533-8.533c0-4.713-3.821-8.533-8.533-8.533h-8.533v-25.6h8.533c4.713,0,8.533-3.82,8.533-8.533
				s-3.821-8.533-8.533-8.533h-8.533v-25.6h17.067c4.713,0,8.533-3.82,8.533-8.533s-3.82-8.533-8.533-8.533H17.096v-25.6h8.533
				c4.713,0,8.533-3.821,8.533-8.533s-3.821-8.533-8.533-8.533h-8.533v-25.6h8.533c4.713,0,8.533-3.82,8.533-8.533
				s-3.821-8.533-8.533-8.533h-8.533V18.126h51.2V495.992z"/>
			<path d="M511.722,93.415c-0.038-0.578-0.138-1.15-0.299-1.707L477.29,6.375C475.997,3.13,472.857,1,469.363,1
				s-6.635,2.13-7.927,5.375l-34.133,85.333c-0.158,0.557-0.261,1.129-0.307,1.707c-0.143,0.494-0.243,0.999-0.299,1.51v341.333
				v34.133c0,23.564,19.103,42.667,42.667,42.667s42.667-19.103,42.667-42.667V94.926C511.976,94.414,511.873,93.908,511.722,93.415
				z M469.363,32.564l7.723,19.311c-5.14,0.418-10.305,0.418-15.445,0L469.363,32.564z M455.078,68.276
				c4.733,0.667,9.505,1.018,14.285,1.05c4.78-0.032,9.552-0.382,14.285-1.05l7.245,18.116h-43.059L455.078,68.276z
				 M494.963,470.392c0,14.138-11.461,25.6-25.6,25.6s-25.6-11.461-25.6-25.6v-17.067h51.2V470.392z M494.963,436.259h-51.2v-25.6
				h51.2V436.259z M494.963,393.592h-51.2V103.459h51.2V393.592z"/>
		</g>
	</g>
</g>
<g>
</g>
<g>
</g>
<g>
</g>
<g>
</g>
<g>
</g>
<g>
</g>
<g>
</g>
<g>
</g>
<g>
</g>
<g>
</g>
<g>
</g>
<g>
</g>
<g>
</g>
<g>
</g>
<g>
</g>
</svg>
