<svg xmlns="http://www.w3.org/2000/svg" height="639pt" version="1.1" viewBox="1 1 639 639.99884" width="639pt">
<g id="surface1">
<path d="M 629.828125 64 L 149.832031 64 L 149.832031 42.664062 C 149.835938 18.34375 117.726562 0 75.167969 0 C 32.609375 0 0.5 18.34375 0.5 42.664062 L 0.5 597.332031 C 0.5 621.652344 32.605469 640 75.167969 640 C 117.726562 640 149.835938 621.652344 149.835938 597.332031 L 629.835938 597.332031 C 635.722656 597.332031 640.5 592.558594 640.5 586.664062 L 640.5 74.667969 C 640.5 68.773438 635.722656 64 629.828125 64 Z M 75.167969 21.332031 C 107.722656 21.332031 128.496094 33.972656 128.496094 42.664062 C 128.496094 51.363281 107.722656 64 75.167969 64 C 42.613281 64 21.832031 51.363281 21.832031 42.664062 C 21.832031 33.972656 42.613281 21.332031 75.167969 21.332031 Z M 128.496094 597.332031 C 128.496094 606.023438 107.722656 618.664062 75.167969 618.664062 C 42.613281 618.664062 21.832031 606.023438 21.832031 597.332031 L 21.832031 73.109375 L 21.894531 73.109375 C 25.359375 75.074219 28.964844 76.761719 32.691406 78.164062 L 32.851562 78.230469 C 36.964844 79.78125 41.167969 81.050781 45.449219 82.035156 L 45.542969 82.035156 C 50.210938 83.121094 54.9375 83.921875 59.699219 84.4375 C 64.835938 85.019531 69.996094 85.316406 75.167969 85.335938 C 80.324219 85.335938 85.476562 85.0625 90.601562 84.5 C 95.378906 83.992188 100.117188 83.203125 104.796875 82.132812 L 104.882812 82.132812 C 109.15625 81.140625 113.367188 79.871094 117.472656 78.324219 L 117.652344 78.261719 C 121.367188 76.855469 124.976562 75.164062 128.433594 73.207031 L 128.496094 73.207031 Z M 619.164062 576 L 149.835938 576 L 149.835938 85.332031 L 619.164062 85.332031 Z M 619.164062 576 " style=" stroke:none;fill-rule:nonzero;fill:rgb(0%,0%,0%);fill-opacity:1;" />
<path d="M 203.164062 533.335938 L 565.832031 533.335938 C 571.722656 533.335938 576.5 528.558594 576.5 522.664062 L 576.5 138.667969 C 576.5 132.777344 571.722656 127.996094 565.832031 127.996094 L 203.164062 127.996094 C 197.277344 127.996094 192.496094 132.773438 192.496094 138.667969 L 192.496094 522.664062 C 192.5 528.558594 197.277344 533.335938 203.164062 533.335938 Z M 309.828125 149.335938 L 309.828125 245.332031 C 309.828125 251.226562 314.609375 256 320.5 256 C 326.390625 256 331.167969 251.226562 331.167969 245.332031 L 331.167969 224 L 480.5 224 C 486.390625 224 491.167969 219.222656 491.167969 213.335938 C 491.167969 207.441406 486.390625 202.664062 480.5 202.664062 L 331.167969 202.664062 L 331.167969 149.332031 L 555.167969 149.332031 L 555.167969 373.6875 L 373.832031 373.335938 C 367.941406 373.335938 363.164062 378.109375 363.164062 384 L 363.164062 469.335938 C 363.164062 475.222656 367.941406 480 373.832031 480 C 379.722656 480 384.496094 475.222656 384.496094 469.335938 L 384.496094 394.667969 L 555.167969 395 L 555.167969 512 L 288.605469 512 L 288.496094 437.332031 C 288.496094 431.445312 283.722656 426.664062 277.832031 426.664062 C 271.9375 426.664062 267.164062 431.445312 267.164062 437.332031 L 267.269531 512 L 213.828125 512 L 213.828125 330.667969 L 331.164062 330.667969 C 337.054688 330.667969 341.832031 325.886719 341.832031 320 C 341.832031 314.109375 337.054688 309.332031 331.164062 309.332031 L 213.832031 309.332031 L 213.832031 149.335938 Z M 309.828125 149.335938 " style=" stroke:none;fill-rule:nonzero;fill:rgb(0%,0%,0%);fill-opacity:1;" />
<path d="M 107.164062 106.667969 C 101.277344 106.667969 96.5 111.441406 96.5 117.332031 L 96.5 576 C 96.5 581.894531 101.277344 586.667969 107.164062 586.667969 C 113.058594 586.667969 117.832031 581.894531 117.832031 576 L 117.832031 117.332031 C 117.832031 111.441406 113.058594 106.667969 107.164062 106.667969 Z M 107.164062 106.667969 " style=" stroke:none;fill-rule:nonzero;fill:rgb(0%,0%,0%);fill-opacity:1;" />
</g>
</svg>