<svg height="480pt" viewBox="0 0 480 480" width="480pt" xmlns="http://www.w3.org/2000/svg"><path d="m96 112h176v16h-176zm0 0"/><path d="m48 160h224v16h-224zm0 0"/><path d="m48 208h144v16h-144zm0 0"/><path d="m48 112h32v16h-32zm0 0"/><path d="m48 256h16v16h-16zm0 0"/><path d="m80 256h96v16h-96zm0 0"/><path d="m464 336h-144v-16h104c8.835938 0 16-7.164062 16-16h24c4.417969 0 8-3.582031 8-8v-32c0-4.417969-3.582031-8-8-8h-24c0-8.835938-7.164062-16-16-16h-104v-56h88c22.082031-.027344 39.972656-17.917969 40-40v-128c0-8.835938-7.164062-16-16-16h-352c-8.835938 0-16 7.164062-16 16v48h-24c-22.082031.027344-39.9726562 17.917969-40 40v360c0 8.835938 7.164062 16 16 16h288c8.835938 0 16-7.164062 16-16v-16h144c8.835938 0 16-7.164062 16-16v-80c0-8.835938-7.164062-16-16-16zm-232-60 16-12v32l-16-12zm32-20h128v16h-56v16h56v16h-128zm192 16v16h-16v-16zm-32-8v40h-16v-48h16zm-104-96v-64c0-13.253906 10.746094-24 24-24s24 10.746094 24 24v40c-.015625 8.65625 2.792969 17.082031 8 24zm-240-152h352v128c0 13.253906-10.746094 24-24 24s-24-10.746094-24-24v-40c.011719-10.613281-4.199219-20.792969-11.703125-28.296875s-17.683594-11.714844-28.296875-11.703125h-264zm224 448h-288v-360c0-13.253906 10.746094-24 24-24h272.207031c-5.292969 6.882812-8.175781 15.316406-8.207031 24v136h-48c-1.730469 0-3.414062.5625-4.800781 1.601562l-32 24c-2.011719 1.507813-3.199219 3.878907-3.199219 6.398438h-16c-4.417969 0-8 3.582031-8 8s3.582031 8 8 8h16c0 2.519531 1.1875 4.890625 3.199219 6.398438l32 24c1.386719 1.039062 3.070312 1.601562 4.800781 1.601562h48v16h-256c-8.835938 0-16 7.164062-16 16v80c0 8.835938 7.164062 16 16 16h256zm160-32h-40v-32h-16v32h-48v-32h-16v32h-48v-48h-16v48h-48v-32h-16v32h-48v-32h-16v32h-48v-32h-16v32h-40v-80h416zm0 0"/></svg>