<?xml version="1.0" encoding="iso-8859-1"?>
<!-- Generator: Adobe Illustrator 19.0.0, SVG Export Plug-In . SVG Version: 6.00 Build 0)  -->
<svg version="1.1" id="Capa_1" xmlns="http://www.w3.org/2000/svg" xmlns:xlink="http://www.w3.org/1999/xlink" x="0px" y="0px"
	 viewBox="0 0 512 512" style="enable-background:new 0 0 512 512;" xml:space="preserve">
<g>
	<g>
		<path d="M426.66,426.666L426.66,426.666v64.001H223.993V416c0-33.749-20.928-42.667-32-42.667h-64
			c-0.859,0.055-1.72,0.055-2.579,0c-11.07-0.712-19.467-10.263-18.754-21.333v-39.765c-0.002-3.051-1.31-5.956-3.595-7.979
			C92.371,294.39,78.529,288.631,63.993,288c-0.047,0.006-0.095,0.011-0.142,0.016c-5.143,0.545-9.755-3.182-10.301-8.326
			l51.787-93.867c0.866-1.579,1.321-3.351,1.323-5.152V160c0.088-76.547,62.12-138.578,138.667-138.667h53.333V0h-53.333
			c-88.324,0.1-159.9,71.676-160,160v17.931l-52.011,94.251c-0.866,1.579-1.321,3.351-1.323,5.152c-0.018,0.606-0.018,1.213,0,1.819
			c0.502,17.171,14.829,30.684,32,30.181c7.758,0.431,15.2,3.218,21.333,7.989V352c-0.024,0.808-0.024,1.617,0,2.425
			c0.67,22.895,19.772,40.911,42.667,40.242h63.701c1.824,0.117,10.965,1.696,10.965,21.333v85.333
			c0,5.891,4.776,10.667,10.667,10.667h224c5.891,0,10.667-4.776,10.667-10.667v-74.667H426.66z"/>
	</g>
</g>
<g>
	<g>
		<path d="M383.993,309.333v21.333H362.66v-21.333h-21.333v32c0,5.891,4.776,10.667,10.667,10.667h42.667
			c5.891,0,10.667-4.776,10.667-10.667v-32H383.993z"/>
	</g>
</g>
<g>
	<g>
		<path d="M415.993,30.151c-53.992-23.564-116.864,1.103-140.428,55.095c-23.564,53.992,1.103,116.864,55.095,140.428v19.659h21.333
			v-26.912c0.002-4.519-2.844-8.549-7.104-10.059c-24.307-8.591-43.427-27.711-52.018-52.018
			c-15.706-44.434,7.584-93.187,52.018-108.893c44.434-15.706,93.187,7.584,108.893,52.018
			c15.705,44.434-7.584,93.187-52.018,108.893c-4.26,1.509-7.106,5.539-7.104,10.059v26.912h21.333v-19.659
			c24.655-10.76,44.334-30.44,55.095-55.095C494.652,116.587,469.985,53.716,415.993,30.151z"/>
	</g>
</g>
<g>
	<g>
		<path d="M394.66,288v10.667h-42.667V288H330.66v21.333c0,5.891,4.776,10.667,10.667,10.667h64c5.891,0,10.667-4.776,10.667-10.667
			V288H394.66z"/>
	</g>
</g>
<g>
	<g>
		<rect x="309.33" y="266.67" width="128" height="21.333"/>
	</g>
</g>
<g>
	<g>
		<path d="M319.993,128h21.333c0-17.673,14.327-32,32-32V74.667C343.886,74.702,320.028,98.559,319.993,128z"/>
	</g>
</g>
<g>
	<g>
		<path d="M415.993,384H394.66c-0.634,0.062-1.273,0.062-1.907,0c-5.365-0.526-9.286-5.302-8.76-10.667v-32H362.66v32
			c-0.018,0.606-0.018,1.213,0,1.819c0.502,17.171,14.829,30.684,32,30.181h21.205c0.657-0.071,1.32-0.075,1.978-0.012
			c5.383,0.514,9.331,5.295,8.817,10.678v13.333c0,5.891,4.776,10.667,10.667,10.667s10.667-4.776,10.667-10.667V416
			c0.018-0.606,0.018-1.213,0-1.819C447.491,397.01,433.164,383.498,415.993,384z"/>
	</g>
</g>
<g>
</g>
<g>
</g>
<g>
</g>
<g>
</g>
<g>
</g>
<g>
</g>
<g>
</g>
<g>
</g>
<g>
</g>
<g>
</g>
<g>
</g>
<g>
</g>
<g>
</g>
<g>
</g>
<g>
</g>
</svg>
